<svg width="70" height="48" viewBox="0 0 70 48" fill="none" xmlns="http://www.w3.org/2000/svg">
<mask id="mask0_1303_9061" style="mask-type:luminance" maskUnits="userSpaceOnUse" x="0" y="0" width="70" height="48">
<path d="M70 0H0V48H70V0Z" fill="white"/>
</mask>
<g mask="url(#mask0_1303_9061)">
<path d="M70.2381 2.80085C70.2307 2.80814 70.2234 2.80813 70.2234 2.82339L70.2078 2.83798C70.1849 2.86119 70.1768 2.86847 70.1849 2.86847L48.1683 25.6445L42.9827 31.0107C42.9734 31.004 42.9629 30.9991 42.9517 30.9961L42.8601 30.951L21.6553 21.6351L22.4284 21.281L26.0032 19.6306L30.9869 17.3318C30.9957 17.3245 31.0061 17.3193 31.0172 17.3166H31.0253L68.2143 0.170481C68.5693 0.00634544 68.9713 -0.0327131 69.3526 0.0598569C69.733 0.152428 70.0704 0.371021 70.3075 0.679044C70.5445 0.987075 70.6672 1.36587 70.6544 1.75209C70.6415 2.1383 70.4947 2.50854 70.2381 2.80085Z" fill="#FFBD5C"/>
<g style="mix-blend-mode:multiply" opacity="0.2">
<path d="M0.281289 14.2512H0.289556C0.281285 14.2589 0.281288 14.2665 0.273706 14.2748C0.273119 14.2704 0.273497 14.2662 0.27481 14.2621C0.276123 14.258 0.278338 14.2543 0.281289 14.2512Z" fill="black"/>
</g>
<g style="mix-blend-mode:multiply" opacity="0.2">
<path d="M42.6959 31.1469C42.6959 31.1469 42.0084 30.8972 40.8153 30.443C39.6195 29.9662 37.9155 29.3308 35.8848 28.4977C33.8533 27.6799 31.4896 26.7036 28.9759 25.6287C26.4621 24.5538 23.7883 23.373 21.115 22.1923C19.7864 21.5862 18.4578 20.9882 17.1511 20.3901C15.8444 19.8074 14.5682 19.1914 13.3226 18.6193C10.8461 17.4605 8.54292 16.355 6.57922 15.3794C5.59006 14.9018 4.69921 14.447 3.89871 14.0395C3.50611 13.8397 3.12877 13.6452 2.79595 13.4866C2.4972 13.3456 2.16601 13.2881 1.83735 13.3202C1.36095 13.3636 0.914572 13.5723 0.575154 13.9102C0.545332 13.9386 0.517581 13.9691 0.492114 14.0015C0.468863 14.0242 0.446283 14.0541 0.42569 14.0768C0.403612 14.0971 0.38338 14.1194 0.365234 14.1433C0.629775 13.7149 1.04199 13.399 1.52363 13.2552C2.00528 13.1114 2.52281 13.1499 2.97798 13.3635L21.6598 21.7281L22.4224 21.3725C24.8139 22.4547 27.2022 23.5376 29.4375 24.5898C31.9141 25.7479 34.2173 26.8607 36.1877 27.8298C38.158 28.7987 39.7749 29.6385 40.9149 30.2139C41.7679 30.6534 42.3418 30.9558 42.5757 31.085L42.6661 31.1303C42.6769 31.1339 42.6871 31.1396 42.6959 31.1469Z" fill="black"/>
</g>
<path d="M43.0015 31.2357L34.7051 39.9615C34.6993 39.9684 34.6944 39.9761 34.6904 39.9843C34.6904 39.9843 34.6824 39.9769 34.6824 39.9843L28.066 46.9446C27.9703 47.0466 27.8689 47.1431 27.7622 47.2337C27.3461 47.5864 26.8613 47.8493 26.3387 48.0055C25.8161 48.1617 25.2667 48.208 24.7252 48.1416C24.1837 48.0752 23.6619 47.8973 23.1926 47.6194C22.7231 47.3414 22.3163 46.9692 21.9977 46.5263L8.80245 28.1925V28.1852C8.78706 28.1772 8.78706 28.1698 8.78706 28.1698L8.62783 27.949L0.414428 16.5454C0.17669 16.2299 0.0351288 15.8525 0.00676026 15.4583C-0.0216071 15.0643 0.0644272 14.6704 0.254524 14.3242C0.261588 14.3152 0.266815 14.305 0.26991 14.294L0.27289 14.2934L0.275371 14.2916L0.276913 14.289L0.27727 14.286V14.2786C0.2767 14.2745 0.277067 14.2703 0.278342 14.2664C0.279616 14.2624 0.281766 14.2588 0.284631 14.2559H0.292655C0.307375 14.2251 0.338156 14.195 0.368263 14.1495C0.634695 13.719 1.04986 13.4014 1.53495 13.2569C2.02002 13.1125 2.54126 13.1512 2.99968 13.3658L21.8151 21.7717L42.881 31.1748L42.972 31.2203C42.9826 31.2235 42.9927 31.2287 43.0015 31.2357Z" fill="#FFAA2E"/>
<g style="mix-blend-mode:multiply" opacity="0.2">
<path d="M47.808 25.7574L42.6928 31.1471C42.6836 31.1403 42.6733 31.1354 42.6622 31.1324L21.6553 21.7302L22.4179 21.3747L25.9441 19.717L47.808 25.7574Z" fill="black"/>
</g>
<g style="mix-blend-mode:screen" opacity="0.5">
<path d="M0.281305 14.2512H0.289607C0.2813 14.2665 0.273689 14.2748 0.273689 14.2824C0.272561 14.2715 0.275252 14.2605 0.281305 14.2512Z" fill="white"/>
</g>
<g style="mix-blend-mode:screen" opacity="0.5">
<path d="M42.6959 31.1469C42.6959 31.1469 42.0084 30.8972 40.8153 30.443C39.6195 29.9662 37.9155 29.3308 35.8848 28.4977C33.8533 27.6799 31.4896 26.7036 28.9759 25.6287C26.4621 24.5538 23.7883 23.373 21.115 22.1923C19.7864 21.5862 18.4578 20.9882 17.1511 20.3901C15.8444 19.8074 14.5682 19.1914 13.3226 18.6193C10.8461 17.4605 8.54292 16.355 6.57922 15.3794C5.59006 14.9018 4.69921 14.447 3.89871 14.0395C3.50611 13.8397 3.12877 13.6452 2.79595 13.4866C2.4972 13.3456 2.16601 13.2881 1.83735 13.3202C1.36095 13.3636 0.914572 13.5723 0.575154 13.9102C0.545332 13.9386 0.517581 13.9691 0.492114 14.0015C0.467857 14.0246 0.445637 14.0498 0.42569 14.0768C0.403612 14.0971 0.38338 14.1194 0.365234 14.1433C0.629775 13.7149 1.04199 13.399 1.52363 13.2552C2.00528 13.1114 2.52281 13.1499 2.97798 13.3635L21.6598 21.7281L42.5764 31.085L42.6667 31.1303C42.6774 31.1339 42.6873 31.1396 42.6959 31.1469Z" fill="white"/>
</g>
<g style="mix-blend-mode:multiply" opacity="0.2">
<path d="M34.4351 39.8526L27.8657 46.7788C27.7707 46.8802 27.6699 46.9762 27.564 47.0665C27.1508 47.4174 26.6695 47.679 26.1506 47.8344C25.6317 47.9899 25.0862 48.0361 24.5486 47.9699C24.011 47.9038 23.4928 47.7269 23.0268 47.4502C22.5607 47.1736 22.1567 46.8033 21.8404 46.3625L8.73877 28.1189C8.82979 28.2174 9.20711 28.6637 9.80168 29.3842C10.466 30.2167 11.4479 31.3901 12.5732 32.8286C13.6985 34.2672 15.0046 35.9547 16.3711 37.7868C17.7455 39.6036 19.1724 41.5828 20.6074 43.5475L21.6643 45.0393L22.1851 45.7804L22.3213 45.9623C22.3558 46.0153 22.3937 46.0661 22.4349 46.1141C22.5146 46.2224 22.6035 46.3235 22.7007 46.4165C23.0488 46.7693 23.47 47.0411 23.9347 47.2125C24.3992 47.3839 24.8959 47.4507 25.3891 47.4081C25.8714 47.3684 26.34 47.2264 26.7635 46.9919C26.9663 46.8799 27.1562 46.7459 27.3296 46.5923L27.481 46.4638L27.5408 46.4105L27.6072 46.3345L27.8863 46.0622C28.6263 45.3203 29.3364 44.6316 30.0008 43.9977C31.3075 42.7257 32.4402 41.7041 33.21 40.9622C33.9003 40.3322 34.3374 39.9325 34.4351 39.8526Z" fill="black"/>
</g>
<g style="mix-blend-mode:screen" opacity="0.5">
<path d="M69.7825 2.44952C69.8748 2.24021 69.9207 2.01289 69.9154 1.78385C69.91 1.55483 69.8542 1.32981 69.7526 1.12492C69.6171 0.819691 69.3833 0.568654 69.0889 0.411769C68.7953 0.254885 68.4572 0.201158 68.129 0.259137C67.7159 0.396165 67.3205 0.58172 66.9512 0.811906C66.5207 1.03101 66.0673 1.26609 65.5989 1.50784C63.711 2.48482 61.4989 3.59768 59.1199 4.77113C57.9242 5.34653 56.6965 5.96985 55.4349 6.55724C54.1735 7.14464 52.906 7.76132 51.6299 8.36669C49.0623 9.56545 46.4947 10.7508 44.0707 11.8338C41.6466 12.9167 39.3819 13.9076 37.4275 14.7328C35.4717 15.5732 33.8255 16.2165 32.6776 16.6933C31.6885 17.0929 31.0541 17.3294 30.9033 17.39L67.5869 0.168573C67.937 0.00534067 68.3323 -0.0326343 68.7076 0.0609788C69.0823 0.154592 69.4138 0.374142 69.647 0.683053C69.8801 0.991964 70.0004 1.37159 69.9877 1.7587C69.9758 2.1458 69.8316 2.51701 69.5798 2.8105C69.6602 2.6981 69.728 2.57701 69.7825 2.44952Z" fill="white"/>
</g>
<g style="mix-blend-mode:screen" opacity="0.3">
<path d="M68.046 2.2451L65.2901 5.14476C63.3043 7.23411 61.3208 9.32333 59.3398 11.4122L31.9595 18.5661C38.3781 15.5532 44.7998 12.5404 51.2246 9.52752C56.3362 7.13001 61.4515 4.72787 66.57 2.32104C67.0609 2.09394 67.5518 1.85884 68.0427 1.63175C68.6439 1.34405 68.3018 1.97205 68.046 2.2451Z" fill="white"/>
</g>
<g style="mix-blend-mode:screen" opacity="0.3">
<path d="M40.1366 31.6545C38.8827 32.9647 37.6343 34.2793 36.3912 35.5985C36.0437 35.9621 35.697 36.3309 35.3496 36.6959L2.14648 14.7281C2.52844 14.7964 2.89447 14.935 3.226 15.1371C8.60296 17.5438 13.9819 19.9512 19.3629 22.3589C26.288 25.4615 33.2127 28.56 40.1366 31.6545Z" fill="white"/>
</g>
</g>
</svg>
